<?xml version="1.0" encoding="utf-8"?>
<!-- Generator: Adobe Illustrator 25.1.0, SVG Export Plug-In . SVG Version: 6.00 Build 0)  -->
<svg version="1.1" id="Layer_1" xmlns="http://www.w3.org/2000/svg" xmlns:xlink="http://www.w3.org/1999/xlink" x="0px" y="0px"
	 viewBox="0 0 155 155" style="enable-background:new 0 0 155 155;" xml:space="preserve">
<style type="text/css">
	.st0{fill:#0291FF;}
	.st1{fill:#04AAFF;}
	.st2{fill:#0166FF;}
</style>
<path class="st0" d="M28.3,77.2V29.5c0-8.7,2.1-10.8,10.7-10.8h11c1.7,0,2.4,0.4,2.2,2.5c-1.4,19.6,3.5,37.4,14.9,53.5
	c0.9,1.2,1.8,2.1,0.6,3.9c-10,16-13.7,33.8-13.7,52.6c-0.1,5.6,0.7,4.9-5.2,4.9c-4.3,0-8.6,0-12.9,0c-4.7,0-7-2-7.5-6.7
	c-0.3-2.7-0.2-5.5-0.2-8.3C28.3,106.6,28.3,92,28.3,77.2z"/>
<path class="st1" d="M127.8,76.2c0.2,9.2-1.8,18.1-5.6,26.5c-0.9,2.1-1.8,3-4.5,1.9C102.3,99,88.5,91.1,77.1,79.3
	c-2.2-2.3-1.9-3.6-0.1-5.9c10.9-13,24.7-20.7,40.9-24.9c2.5-0.7,3.1,0.9,3.9,2.5C125.7,58.9,127.7,67.5,127.8,76.2z"/>
<path class="st2" d="M69.2,136.2c-10.7,0-10.8,0-10.3-9.8c0.9-14.8,3.6-29.3,11-42.4c1.6-2.9,2.5-3,4.7-0.6
	c11.3,11.9,25.1,19.8,40.3,25.4c2.3,0.9,3,1.4,1.3,3.6c-8.9,11.8-20.4,19.3-35,22.5C77.4,135.9,73.2,136.3,69.2,136.2z"/>
<path class="st0" d="M65.9,18.8c20.3-0.4,36.6,6.8,49.3,22.1c2.5,2.9,2.2,3.4-1.4,4.2c-15.8,3.8-29.9,12.6-40,25.3
	c-1.9,2.3-2.5,1.9-3.9-0.3C60.3,55.8,56.2,39.8,57,22.5c0.1-1.5,0.3-2.3,0.3-3.8h4C63,18.8,64.8,18.8,65.9,18.8z"/>
</svg>
